<?xml version="1.0" encoding="utf-8"?>
<!-- Generator: Adobe Illustrator 16.0.0, SVG Export Plug-In . SVG Version: 6.00 Build 0)  -->
<!DOCTYPE svg PUBLIC "-//W3C//DTD SVG 1.1//EN" "http://www.w3.org/Graphics/SVG/1.1/DTD/svg11.dtd">
<svg version="1.1" xmlns="http://www.w3.org/2000/svg" xmlns:xlink="http://www.w3.org/1999/xlink" width="1920px" height="1200px" xml:space="preserve">
	<radialGradient id="SVGID_1_" cx="1540.9082" cy="114.5845" r="1954.5417" gradientTransform="matrix(1.1643 0 0 -1.7465 154.0233 1950.2651)" gradientUnits="userSpaceOnUse">
		<stop  offset="0.1934" style="stop-color:#3F0746"/>
		<stop  offset="0.7628" style="stop-color:#8D4892"/>
		<stop  offset="0.7835" style="stop-color:#87448D"/>
		<stop  offset="1" style="stop-color:#360646"/>
	</radialGradient>
	<rect x="-386.232" y="-156.126" fill="url(#SVGID_1_)" width="2731.465" height="1496.774"/>
	<rect x="1546.062" y="103.112" fill="none" width="311.287" height="57.021"/>
	<rect x="1546.062" y="166.616" fill="none" width="277.484" height="34.474"/>
	<g enable-background="new    ">
		<path fill="#B884C1" d="M1559.389,104.137h13.749c0.603,0,1.035,0.127,1.296,0.381c0.262,0.254,0.393,0.582,0.393,0.984
			c0,0.381-0.131,0.698-0.393,0.952c-0.261,0.254-0.693,0.381-1.296,0.381h-13.749v17.742c0,1.545,0.588,2.835,1.764,3.872
			c1.176,1.037,2.899,1.555,5.171,1.555c1.708,0,3.558-0.27,5.548-0.809c1.99-0.54,3.538-1.148,4.644-1.825
			c0.401-0.275,0.733-0.413,0.995-0.413c0.321,0,0.603,0.132,0.844,0.397s0.362,0.577,0.362,0.936c0,0.317-0.131,0.614-0.393,0.889
			c-0.644,0.698-2.206,1.455-4.688,2.269c-2.482,0.814-4.859,1.222-7.131,1.222c-2.954,0-5.307-0.73-7.056-2.19
			c-1.748-1.46-2.623-3.428-2.623-5.903v-17.742h-4.673c-0.604,0-1.036-0.127-1.297-0.381c-0.262-0.254-0.392-0.582-0.392-0.984
			c0-0.381,0.13-0.698,0.392-0.952c0.261-0.254,0.693-0.381,1.297-0.381h4.673v-7.871c0-0.635,0.121-1.089,0.362-1.365
			c0.241-0.275,0.543-0.413,0.904-0.413c0.382,0,0.693,0.138,0.935,0.413c0.241,0.275,0.362,0.73,0.362,1.365V104.137z"/>
		<path fill="#B884C1" d="M1589.357,91.791v16.409c1.607-1.841,3.15-3.137,4.628-3.888s3.131-1.127,4.96-1.127
			c1.97,0,3.644,0.365,5.021,1.095c1.376,0.73,2.527,1.852,3.452,3.364c0.924,1.513,1.387,3.105,1.387,4.777v16.536h2.834
			c0.623,0,1.061,0.122,1.312,0.365c0.252,0.243,0.377,0.566,0.377,0.968c0,0.381-0.125,0.698-0.377,0.952
			c-0.251,0.254-0.688,0.381-1.312,0.381h-8.23c-0.624,0-1.066-0.127-1.327-0.381c-0.262-0.254-0.392-0.571-0.392-0.952
			c0-0.402,0.13-0.725,0.392-0.968c0.261-0.243,0.703-0.365,1.327-0.365h2.834v-16.345c0-1.925-0.659-3.533-1.976-4.824
			c-1.316-1.291-3.15-1.936-5.502-1.936c-1.85,0-3.428,0.476-4.734,1.428c-0.944,0.677-2.502,2.275-4.673,4.792v16.885h2.864
			c0.603,0,1.035,0.122,1.296,0.365c0.262,0.243,0.393,0.566,0.393,0.968c0,0.381-0.131,0.698-0.393,0.952
			c-0.261,0.254-0.693,0.381-1.296,0.381h-8.262c-0.603,0-1.035-0.127-1.296-0.381c-0.262-0.254-0.393-0.571-0.393-0.952
			c0-0.402,0.131-0.725,0.393-0.968c0.261-0.243,0.693-0.365,1.296-0.365h2.864V94.488h-3.407c-0.603,0-1.035-0.127-1.296-0.381
			c-0.262-0.254-0.393-0.582-0.393-0.984c0-0.381,0.131-0.698,0.393-0.952c0.261-0.254,0.693-0.381,1.296-0.381H1589.357z"/>
		<path fill="#B884C1" d="M1632.14,104.137v24.819h9.949c0.623,0,1.065,0.122,1.327,0.365c0.261,0.243,0.392,0.566,0.392,0.968
			c0,0.381-0.131,0.698-0.392,0.952c-0.262,0.254-0.704,0.381-1.327,0.381h-22.433c-0.603,0-1.035-0.127-1.296-0.381
			c-0.262-0.254-0.393-0.571-0.393-0.952c0-0.402,0.131-0.725,0.393-0.968c0.261-0.243,0.693-0.365,1.296-0.365h9.95v-22.122
			h-7.387c-0.604,0-1.04-0.127-1.312-0.381s-0.407-0.571-0.407-0.952c0-0.402,0.131-0.73,0.392-0.984
			c0.262-0.254,0.704-0.381,1.327-0.381H1632.14z M1632.049,90.458v6.887h-3.738v-6.887H1632.049z"/>
		<path fill="#B884C1" d="M1660.872,104.137v6.729c3.296-3.131,5.764-5.146,7.402-6.046c1.638-0.899,3.15-1.349,4.537-1.349
			c1.508,0,2.91,0.535,4.206,1.603c1.297,1.068,1.945,1.878,1.945,2.428c0,0.402-0.126,0.735-0.377,1
			c-0.252,0.265-0.568,0.396-0.95,0.396c-0.201,0-0.372-0.037-0.513-0.111c-0.141-0.074-0.402-0.312-0.783-0.714
			c-0.704-0.74-1.317-1.248-1.84-1.523c-0.522-0.275-1.035-0.413-1.537-0.413c-1.106,0-2.438,0.466-3.995,1.396
			c-1.559,0.931-4.257,3.206-8.096,6.824v14.6h11.216c0.623,0,1.065,0.122,1.327,0.365c0.261,0.243,0.392,0.566,0.392,0.968
			c0,0.381-0.131,0.698-0.392,0.952c-0.262,0.254-0.704,0.381-1.327,0.381h-19.869c-0.604,0-1.036-0.122-1.297-0.365
			c-0.262-0.243-0.392-0.555-0.392-0.936c0-0.359,0.125-0.661,0.377-0.905c0.251-0.243,0.688-0.365,1.312-0.365h6.12v-22.217
			h-4.673c-0.604,0-1.036-0.127-1.297-0.381c-0.262-0.254-0.392-0.582-0.392-0.984c0-0.381,0.125-0.698,0.377-0.952
			c0.251-0.254,0.688-0.381,1.312-0.381H1660.872z"/>
		<path fill="#B884C1" d="M1705.372,105.882c0-0.613,0.121-1.058,0.362-1.333c0.241-0.275,0.543-0.413,0.904-0.413
			c0.382,0,0.693,0.138,0.935,0.413c0.241,0.275,0.362,0.741,0.362,1.396v4.57c0,0.635-0.121,1.09-0.362,1.365
			c-0.241,0.275-0.553,0.413-0.935,0.413c-0.342,0-0.628-0.116-0.859-0.349c-0.231-0.232-0.366-0.613-0.407-1.143
			c-0.12-1.27-0.743-2.317-1.869-3.142c-1.648-1.185-3.829-1.777-6.543-1.777c-2.834,0-5.035,0.603-6.603,1.809
			c-1.187,0.91-1.779,1.926-1.779,3.047c0,1.27,0.703,2.328,2.11,3.174c0.965,0.593,2.794,1.047,5.488,1.365
			c3.517,0.402,5.959,0.857,7.326,1.365c1.95,0.741,3.402,1.767,4.357,3.079c0.954,1.312,1.432,2.729,1.432,4.253
			c0,2.264-1.035,4.28-3.105,6.046c-2.07,1.766-5.105,2.65-9.105,2.65s-7.277-1.068-9.829-3.206c0,0.72-0.041,1.185-0.121,1.396
			c-0.08,0.212-0.226,0.392-0.438,0.54c-0.211,0.148-0.447,0.222-0.708,0.222c-0.362,0-0.663-0.137-0.904-0.413
			c-0.241-0.275-0.362-0.73-0.362-1.365v-5.491c0-0.635,0.115-1.089,0.347-1.365c0.231-0.275,0.538-0.413,0.92-0.413
			c0.361,0,0.668,0.132,0.92,0.397c0.251,0.265,0.377,0.619,0.377,1.063c0,0.974,0.23,1.788,0.693,2.444
			c0.703,1.016,1.824,1.856,3.361,2.523c1.538,0.666,3.422,1,5.653,1c3.297,0,5.749-0.645,7.357-1.936
			c1.607-1.291,2.412-2.655,2.412-4.094c0-1.65-0.814-2.973-2.442-3.967c-1.648-0.994-4.046-1.661-7.191-2
			c-3.146-0.338-5.402-0.783-6.769-1.333c-1.367-0.55-2.433-1.375-3.196-2.476c-0.764-1.1-1.146-2.285-1.146-3.555
			c0-2.285,1.065-4.099,3.196-5.443c2.13-1.344,4.673-2.016,7.628-2.016C1700.337,103.185,1703.182,104.084,1705.372,105.882z"/>
		<path fill="#B884C1" d="M1724.909,104.137h13.749c0.603,0,1.035,0.127,1.296,0.381c0.262,0.254,0.393,0.582,0.393,0.984
			c0,0.381-0.131,0.698-0.393,0.952c-0.261,0.254-0.693,0.381-1.296,0.381h-13.749v17.742c0,1.545,0.588,2.835,1.764,3.872
			c1.176,1.037,2.899,1.555,5.171,1.555c1.708,0,3.558-0.27,5.548-0.809c1.99-0.54,3.538-1.148,4.644-1.825
			c0.401-0.275,0.733-0.413,0.995-0.413c0.321,0,0.603,0.132,0.844,0.397s0.362,0.577,0.362,0.936c0,0.317-0.131,0.614-0.393,0.889
			c-0.644,0.698-2.206,1.455-4.688,2.269c-2.482,0.814-4.859,1.222-7.131,1.222c-2.954,0-5.307-0.73-7.056-2.19
			c-1.748-1.46-2.623-3.428-2.623-5.903v-17.742h-4.673c-0.604,0-1.036-0.127-1.297-0.381c-0.262-0.254-0.392-0.582-0.392-0.984
			c0-0.381,0.13-0.698,0.392-0.952c0.261-0.254,0.693-0.381,1.297-0.381h4.673v-7.871c0-0.635,0.121-1.089,0.362-1.365
			c0.241-0.275,0.543-0.413,0.904-0.413c0.382,0,0.693,0.138,0.935,0.413c0.241,0.275,0.362,0.73,0.362,1.365V104.137z"/>
		<path fill="#B884C1" d="M1763.379,131.622l-11.759-24.788h-0.754c-0.603,0-1.035-0.127-1.296-0.381
			c-0.262-0.254-0.393-0.571-0.393-0.952c0-0.275,0.065-0.524,0.196-0.746c0.131-0.223,0.302-0.381,0.513-0.477
			c0.211-0.095,0.537-0.143,0.979-0.143h6.936c0.603,0,1.035,0.127,1.296,0.381c0.262,0.254,0.393,0.582,0.393,0.984
			c0,0.381-0.131,0.698-0.393,0.952c-0.261,0.254-0.693,0.381-1.296,0.381h-3.407l10.342,21.868l10.191-21.868h-3.407
			c-0.604,0-1.036-0.127-1.297-0.381c-0.262-0.254-0.392-0.582-0.392-0.984c0-0.381,0.13-0.698,0.392-0.952
			c0.261-0.254,0.693-0.381,1.297-0.381h6.904c0.623,0,1.065,0.127,1.327,0.381c0.261,0.254,0.392,0.582,0.392,0.984
			c0,0.275-0.08,0.529-0.241,0.762c-0.161,0.233-0.342,0.386-0.543,0.46s-0.764,0.111-1.688,0.111l-16.04,34.373h3.949
			c0.604,0,1.035,0.122,1.297,0.365c0.261,0.243,0.392,0.565,0.392,0.968c0,0.381-0.131,0.698-0.392,0.952
			c-0.262,0.254-0.693,0.381-1.297,0.381h-14.593c-0.604,0-1.035-0.122-1.297-0.365c-0.261-0.243-0.392-0.566-0.392-0.968
			c0-0.402,0.131-0.725,0.392-0.968c0.262-0.244,0.693-0.365,1.297-0.365h7.93L1763.379,131.622z"/>
		<path fill="#B884C1" d="M1811.801,113.15c0,3.555-0.684,6.851-2.05,9.887c-1.367,3.036-3.252,5.401-5.654,7.093
			c-2.401,1.692-4.979,2.539-7.733,2.539c-4.081,0-7.674-1.825-10.779-5.475c-3.105-3.649-4.658-8.331-4.658-14.044
			c0-5.734,1.553-10.42,4.658-14.06c3.105-3.639,6.698-5.459,10.779-5.459c2.754,0,5.326,0.847,7.719,2.539
			c2.392,1.693,4.276,4.052,5.653,7.078C1811.112,106.274,1811.801,109.575,1811.801,113.15z M1809.238,113.15
			c0-4.337-1.196-8.23-3.589-11.68c-2.392-3.449-5.487-5.173-9.286-5.173c-3.558,0-6.599,1.646-9.121,4.935
			c-2.522,3.291-3.784,7.263-3.784,11.918c0,4.951,1.322,8.998,3.966,12.14c2.643,3.143,5.623,4.713,8.939,4.713
			c3.799,0,6.895-1.719,9.286-5.158C1808.042,121.408,1809.238,117.509,1809.238,113.15z"/>
		<path fill="#B884C1" d="M1838.482,97.154v-0.889c0-0.635,0.115-1.089,0.347-1.365c0.23-0.275,0.537-0.413,0.919-0.413
			s0.688,0.138,0.92,0.413c0.23,0.275,0.347,0.73,0.347,1.365v6.792c0,0.635-0.116,1.09-0.347,1.365
			c-0.231,0.275-0.538,0.413-0.92,0.413c-0.361,0-0.658-0.127-0.889-0.381c-0.231-0.254-0.357-0.667-0.377-1.238
			c-0.102-1.777-0.971-3.375-2.608-4.792c-1.639-1.417-3.784-2.126-6.438-2.126c-2.794,0-5.016,0.757-6.663,2.269
			c-1.648,1.513-2.473,3.296-2.473,5.348c0,1.058,0.23,2.021,0.693,2.888c0.462,0.868,1.075,1.571,1.839,2.11
			c0.765,0.54,1.629,0.974,2.594,1.302s2.473,0.672,4.522,1.031c3.438,0.593,5.809,1.196,7.116,1.809
			c1.748,0.825,3.069,1.968,3.965,3.428c0.894,1.46,1.342,3.185,1.342,5.173c0,3.047-1.156,5.645-3.468,7.792
			s-5.428,3.221-9.347,3.221c-4.402,0-7.92-1.449-10.554-4.348v1.523c0,0.635-0.115,1.09-0.347,1.365
			c-0.231,0.275-0.538,0.413-0.919,0.413c-0.362,0-0.664-0.137-0.905-0.413c-0.241-0.275-0.361-0.73-0.361-1.365v-7.363
			c0-0.656,0.115-1.121,0.347-1.396c0.23-0.275,0.537-0.413,0.92-0.413c0.361,0,0.658,0.127,0.889,0.381
			c0.231,0.254,0.357,0.667,0.377,1.238c0.101,1.947,1.091,3.719,2.971,5.316c1.879,1.598,4.406,2.396,7.583,2.396
			c3.176,0,5.684-0.835,7.522-2.507c1.839-1.671,2.759-3.65,2.759-5.935c0-1.396-0.352-2.639-1.056-3.729
			c-0.703-1.09-1.748-1.952-3.136-2.587c-0.965-0.444-2.975-0.941-6.03-1.492c-4.201-0.74-7.226-1.873-9.075-3.396
			s-2.773-3.692-2.773-6.506c0-2.793,1.06-5.194,3.181-7.205c2.12-2.01,4.919-3.015,8.397-3.015
			C1832.884,93.631,1835.929,94.806,1838.482,97.154z"/>
	</g>
	<g enable-background="new    ">
		<path fill="#B884C1" d="M1562.548,166.624v10.607c1.736-2.514,3.833-3.771,6.29-3.771c2.102,0,3.901,0.848,5.398,2.542
			c1.497,1.695,2.245,3.774,2.245,6.237c0,2.488-0.757,4.596-2.271,6.322c-1.515,1.727-3.306,2.59-5.373,2.59
			c-2.514,0-4.61-1.257-6.29-3.771v3.142h-3.376c-0.343,0-0.589-0.076-0.737-0.229s-0.223-0.343-0.223-0.571
			c0-0.241,0.074-0.435,0.223-0.581c0.148-0.146,0.395-0.219,0.737-0.219h1.937v-20.681h-1.937c-0.343,0-0.589-0.076-0.737-0.229
			s-0.223-0.349-0.223-0.59c0-0.229,0.074-0.419,0.223-0.571s0.395-0.229,0.737-0.229H1562.548z M1575.042,182.315
			c0-2.019-0.623-3.729-1.868-5.132c-1.245-1.402-2.702-2.104-4.37-2.104c-1.669,0-3.125,0.702-4.371,2.104
			c-1.245,1.403-1.868,3.114-1.868,5.132s0.623,3.729,1.868,5.132c1.246,1.403,2.702,2.104,4.371,2.104
			c1.668,0,3.125-0.701,4.37-2.104S1575.042,184.333,1575.042,182.315z"/>
		<path fill="#B884C1" d="M1590.191,190.522v-2.304c-2.091,1.955-4.325,2.933-6.701,2.933c-1.726,0-3.074-0.486-4.045-1.457
			c-0.972-0.972-1.457-2.162-1.457-3.571c0-1.549,0.64-2.901,1.92-4.056c1.279-1.155,3.147-1.733,5.604-1.733
			c0.662,0,1.382,0.047,2.159,0.143c0.776,0.095,1.616,0.244,2.52,0.447v-2.59c0-0.876-0.366-1.638-1.097-2.285
			c-0.731-0.647-1.828-0.971-3.291-0.971c-1.12,0-2.69,0.362-4.713,1.085c-0.366,0.127-0.6,0.19-0.703,0.19
			c-0.183,0-0.34-0.076-0.471-0.229c-0.132-0.152-0.197-0.343-0.197-0.571c0-0.216,0.057-0.387,0.171-0.514
			c0.16-0.19,0.806-0.451,1.937-0.781c1.783-0.533,3.131-0.8,4.045-0.8c1.816,0,3.233,0.499,4.251,1.495
			c1.017,0.997,1.525,2.123,1.525,3.38v10.588h1.919c0.354,0,0.605,0.073,0.754,0.219c0.148,0.146,0.223,0.34,0.223,0.581
			c0,0.229-0.074,0.419-0.223,0.571s-0.399,0.229-0.754,0.229H1590.191z M1590.191,182.562c-0.675-0.216-1.389-0.375-2.143-0.476
			s-1.548-0.152-2.382-0.152c-2.092,0-3.726,0.501-4.902,1.504c-0.891,0.749-1.337,1.644-1.337,2.685
			c0,0.965,0.34,1.777,1.021,2.438c0.68,0.66,1.671,0.99,2.974,0.99c1.245,0,2.401-0.276,3.47-0.829
			c1.068-0.552,2.168-1.431,3.3-2.637V182.562z"/>
		<path fill="#B884C1" d="M1608.889,175.079c0-0.368,0.068-0.635,0.205-0.8c0.138-0.165,0.309-0.248,0.515-0.248
			c0.217,0,0.394,0.083,0.531,0.248c0.137,0.165,0.205,0.444,0.205,0.838v2.742c0,0.381-0.068,0.654-0.205,0.819
			c-0.138,0.165-0.314,0.248-0.531,0.248c-0.194,0-0.357-0.07-0.488-0.209c-0.132-0.14-0.209-0.368-0.231-0.686
			c-0.069-0.762-0.423-1.39-1.063-1.885c-0.937-0.711-2.176-1.066-3.719-1.066c-1.611,0-2.862,0.362-3.753,1.085
			c-0.675,0.546-1.012,1.155-1.012,1.828c0,0.762,0.4,1.396,1.2,1.904c0.548,0.355,1.588,0.628,3.119,0.819
			c1.999,0.241,3.388,0.514,4.164,0.819c1.108,0.444,1.935,1.06,2.477,1.847c0.543,0.787,0.814,1.638,0.814,2.552
			c0,1.358-0.589,2.568-1.766,3.627c-1.177,1.06-2.902,1.59-5.176,1.59s-4.136-0.641-5.587-1.923c0,0.432-0.023,0.711-0.068,0.838
			c-0.046,0.127-0.129,0.235-0.249,0.324c-0.119,0.089-0.254,0.133-0.402,0.133c-0.206,0-0.377-0.083-0.515-0.248
			c-0.137-0.165-0.205-0.438-0.205-0.819v-3.294c0-0.381,0.065-0.654,0.197-0.819c0.131-0.165,0.306-0.248,0.522-0.248
			c0.206,0,0.38,0.08,0.522,0.238c0.143,0.159,0.215,0.372,0.215,0.638c0,0.584,0.131,1.073,0.394,1.466
			c0.4,0.609,1.037,1.114,1.911,1.514c0.874,0.4,1.945,0.6,3.214,0.6c1.873,0,3.268-0.387,4.182-1.162s1.371-1.593,1.371-2.457
			c0-0.99-0.463-1.784-1.389-2.38c-0.937-0.597-2.299-0.997-4.087-1.2c-1.789-0.203-3.071-0.47-3.848-0.8
			c-0.777-0.33-1.383-0.825-1.817-1.485c-0.434-0.66-0.65-1.371-0.65-2.133c0-1.371,0.605-2.459,1.816-3.266
			c1.211-0.806,2.656-1.209,4.336-1.209C1606.026,173.46,1607.643,174,1608.889,175.079z"/>
		<path fill="#B884C1" d="M1630.002,182.658h-14.671c0.251,2.069,1.031,3.736,2.34,4.999c1.308,1.264,2.928,1.895,4.858,1.895
			c1.074,0,2.199-0.197,3.376-0.59s2.137-0.914,2.88-1.562c0.217-0.19,0.405-0.286,0.565-0.286c0.183,0,0.343,0.08,0.479,0.238
			c0.138,0.159,0.206,0.346,0.206,0.562s-0.092,0.425-0.274,0.628c-0.548,0.635-1.522,1.229-2.922,1.78
			c-1.399,0.553-2.837,0.829-4.311,0.829c-2.468,0-4.527-0.898-6.179-2.695c-1.65-1.796-2.477-3.97-2.477-6.522
			c0-2.323,0.774-4.316,2.322-5.979c1.549-1.663,3.465-2.495,5.75-2.495c2.354,0,4.291,0.854,5.811,2.562
			S1630.024,179.941,1630.002,182.658z M1628.545,181.039c-0.285-1.765-1.037-3.199-2.254-4.304s-2.665-1.657-4.345-1.657
			c-1.679,0-3.125,0.546-4.336,1.638s-1.965,2.533-2.262,4.323H1628.545z"/>
		<path fill="#B884C1" d="M1647.345,166.624v22.299h1.92c0.354,0,0.605,0.073,0.754,0.219c0.148,0.146,0.223,0.34,0.223,0.581
			c0,0.229-0.074,0.419-0.223,0.571s-0.4,0.229-0.754,0.229h-3.376v-3.18c-1.669,2.539-3.788,3.809-6.358,3.809
			c-1.303,0-2.552-0.384-3.745-1.152c-1.194-0.768-2.137-1.863-2.828-3.285s-1.037-2.888-1.037-4.399
			c0-1.523,0.346-2.993,1.037-4.409c0.691-1.415,1.634-2.51,2.828-3.285c1.193-0.774,2.447-1.162,3.762-1.162
			c2.514,0,4.628,1.27,6.342,3.809v-9.026h-1.92c-0.354,0-0.605-0.076-0.754-0.229s-0.223-0.349-0.223-0.59
			c0-0.229,0.074-0.419,0.223-0.571s0.399-0.229,0.754-0.229H1647.345z M1645.889,182.315c0-2.031-0.617-3.745-1.852-5.142
			c-1.233-1.396-2.702-2.095-4.404-2.095c-1.714,0-3.188,0.698-4.422,2.095c-1.234,1.396-1.852,3.11-1.852,5.142
			c0,2.019,0.617,3.729,1.852,5.132c1.233,1.403,2.708,2.104,4.422,2.104c1.702,0,3.171-0.701,4.404-2.104
			C1645.271,186.044,1645.889,184.333,1645.889,182.315z"/>
	</g>
	<g enable-background="new    ">
		<path fill="#B884C1" d="M1674.842,182.315c0,2.438-0.785,4.52-2.356,6.246s-3.465,2.59-5.682,2.59
			c-2.239,0-4.142-0.867-5.707-2.599c-1.565-1.733-2.348-3.812-2.348-6.237c0-2.438,0.782-4.523,2.348-6.255
			c1.565-1.733,3.468-2.6,5.707-2.6c2.217,0,4.11,0.863,5.682,2.59S1674.842,179.865,1674.842,182.315z M1673.385,182.315
			c0-2.006-0.643-3.713-1.928-5.123s-2.842-2.114-4.67-2.114s-3.385,0.708-4.671,2.124c-1.285,1.416-1.928,3.12-1.928,5.113
			c0,1.98,0.643,3.682,1.928,5.104c1.286,1.422,2.843,2.133,4.671,2.133s3.385-0.708,4.67-2.124
			C1672.742,186.013,1673.385,184.308,1673.385,182.315z"/>
		<path fill="#B884C1" d="M1680.223,174.031v2.418c1.005-1.13,1.913-1.911,2.725-2.342s1.726-0.647,2.742-0.647
			c1.097,0,2.097,0.26,2.999,0.781c0.64,0.381,1.22,1.013,1.74,1.895c0.52,0.882,0.779,1.787,0.779,2.713v10.074h1.217
			c0.343,0,0.589,0.073,0.737,0.219c0.148,0.146,0.223,0.34,0.223,0.581c0,0.229-0.074,0.419-0.223,0.571s-0.395,0.229-0.737,0.229
			h-3.856c-0.354,0-0.605-0.076-0.754-0.229s-0.223-0.343-0.223-0.571c0-0.241,0.074-0.435,0.223-0.581
			c0.148-0.146,0.4-0.219,0.754-0.219h1.2v-9.807c0-1.13-0.371-2.085-1.114-2.866c-0.742-0.781-1.736-1.171-2.981-1.171
			c-0.949,0-1.771,0.213-2.469,0.638c-0.696,0.425-1.69,1.482-2.981,3.17v10.036h1.628c0.343,0,0.588,0.073,0.737,0.219
			c0.147,0.146,0.223,0.34,0.223,0.581c0,0.229-0.075,0.419-0.223,0.571c-0.149,0.152-0.395,0.229-0.737,0.229h-4.696
			c-0.343,0-0.589-0.076-0.736-0.229c-0.149-0.152-0.224-0.343-0.224-0.571c0-0.241,0.074-0.435,0.224-0.581
			c0.147-0.146,0.394-0.219,0.736-0.219h1.628V175.65h-1.217c-0.343,0-0.588-0.076-0.736-0.229s-0.223-0.349-0.223-0.59
			c0-0.229,0.074-0.419,0.223-0.571s0.394-0.229,0.736-0.229H1680.223z"/>
	</g>
	<g enable-background="new    ">
		<path fill="#B884C1" d="M1718.642,166.624v22.299h1.92c0.354,0,0.605,0.073,0.754,0.219c0.148,0.146,0.223,0.34,0.223,0.581
			c0,0.229-0.074,0.419-0.223,0.571s-0.4,0.229-0.754,0.229h-3.376v-3.18c-1.669,2.539-3.788,3.809-6.358,3.809
			c-1.303,0-2.552-0.384-3.745-1.152c-1.194-0.768-2.137-1.863-2.828-3.285s-1.037-2.888-1.037-4.399
			c0-1.523,0.346-2.993,1.037-4.409c0.691-1.415,1.634-2.51,2.828-3.285c1.193-0.774,2.447-1.162,3.762-1.162
			c2.514,0,4.628,1.27,6.342,3.809v-9.026h-1.92c-0.354,0-0.605-0.076-0.754-0.229s-0.223-0.349-0.223-0.59
			c0-0.229,0.074-0.419,0.223-0.571s0.399-0.229,0.754-0.229H1718.642z M1717.186,182.315c0-2.031-0.617-3.745-1.852-5.142
			c-1.233-1.396-2.702-2.095-4.404-2.095c-1.714,0-3.188,0.698-4.422,2.095c-1.234,1.396-1.852,3.11-1.852,5.142
			c0,2.019,0.617,3.729,1.852,5.132c1.233,1.403,2.708,2.104,4.422,2.104c1.702,0,3.171-0.701,4.404-2.104
			C1716.568,186.044,1717.186,184.333,1717.186,182.315z"/>
		<path fill="#B884C1" d="M1737.459,182.658h-14.671c0.251,2.069,1.031,3.736,2.34,4.999c1.308,1.264,2.928,1.895,4.858,1.895
			c1.074,0,2.199-0.197,3.376-0.59s2.137-0.914,2.88-1.562c0.217-0.19,0.405-0.286,0.565-0.286c0.183,0,0.343,0.08,0.479,0.238
			c0.138,0.159,0.206,0.346,0.206,0.562s-0.092,0.425-0.274,0.628c-0.548,0.635-1.522,1.229-2.922,1.78
			c-1.399,0.553-2.837,0.829-4.311,0.829c-2.468,0-4.527-0.898-6.179-2.695c-1.65-1.796-2.477-3.97-2.477-6.522
			c0-2.323,0.774-4.316,2.322-5.979c1.549-1.663,3.465-2.495,5.75-2.495c2.354,0,4.291,0.854,5.811,2.562
			S1737.481,179.941,1737.459,182.658z M1736.002,181.039c-0.285-1.765-1.037-3.199-2.254-4.304s-2.665-1.657-4.345-1.657
			c-1.679,0-3.125,0.546-4.336,1.638s-1.965,2.533-2.262,4.323H1736.002z"/>
		<path fill="#B884C1" d="M1742.325,166.624v10.607c1.736-2.514,3.833-3.771,6.29-3.771c2.102,0,3.901,0.848,5.398,2.542
			c1.497,1.695,2.245,3.774,2.245,6.237c0,2.488-0.757,4.596-2.271,6.322c-1.515,1.727-3.306,2.59-5.373,2.59
			c-2.514,0-4.61-1.257-6.29-3.771v3.142h-3.376c-0.343,0-0.589-0.076-0.737-0.229s-0.223-0.343-0.223-0.571
			c0-0.241,0.074-0.435,0.223-0.581c0.148-0.146,0.395-0.219,0.737-0.219h1.937v-20.681h-1.937c-0.343,0-0.589-0.076-0.737-0.229
			s-0.223-0.349-0.223-0.59c0-0.229,0.074-0.419,0.223-0.571s0.395-0.229,0.737-0.229H1742.325z M1754.819,182.315
			c0-2.019-0.623-3.729-1.868-5.132c-1.245-1.402-2.702-2.104-4.37-2.104c-1.669,0-3.125,0.702-4.371,2.104
			c-1.245,1.403-1.868,3.114-1.868,5.132s0.623,3.729,1.868,5.132c1.246,1.403,2.702,2.104,4.371,2.104
			c1.668,0,3.125-0.701,4.37-2.104S1754.819,184.333,1754.819,182.315z"/>
		<path fill="#B884C1" d="M1766.592,174.031v14.892h5.656c0.354,0,0.605,0.073,0.754,0.219c0.148,0.146,0.223,0.34,0.223,0.581
			c0,0.229-0.074,0.419-0.223,0.571s-0.4,0.229-0.754,0.229h-12.751c-0.343,0-0.589-0.076-0.737-0.229s-0.223-0.343-0.223-0.571
			c0-0.241,0.074-0.435,0.223-0.581c0.148-0.146,0.395-0.219,0.737-0.219h5.655V175.65h-4.199c-0.343,0-0.591-0.076-0.745-0.229
			s-0.231-0.343-0.231-0.571c0-0.241,0.074-0.438,0.223-0.59s0.4-0.229,0.754-0.229H1766.592z M1766.541,165.824v4.132h-2.125
			v-4.132H1766.541z"/>
		<path fill="#B884C1" d="M1788.049,190.522v-2.304c-2.091,1.955-4.325,2.933-6.701,2.933c-1.726,0-3.074-0.486-4.045-1.457
			c-0.972-0.972-1.457-2.162-1.457-3.571c0-1.549,0.64-2.901,1.92-4.056c1.279-1.155,3.147-1.733,5.604-1.733
			c0.662,0,1.382,0.047,2.159,0.143c0.776,0.095,1.616,0.244,2.52,0.447v-2.59c0-0.876-0.366-1.638-1.097-2.285
			c-0.731-0.647-1.828-0.971-3.291-0.971c-1.12,0-2.69,0.362-4.713,1.085c-0.366,0.127-0.6,0.19-0.703,0.19
			c-0.183,0-0.34-0.076-0.471-0.229c-0.132-0.152-0.197-0.343-0.197-0.571c0-0.216,0.057-0.387,0.171-0.514
			c0.16-0.19,0.806-0.451,1.937-0.781c1.783-0.533,3.131-0.8,4.045-0.8c1.816,0,3.233,0.499,4.251,1.495
			c1.017,0.997,1.525,2.123,1.525,3.38v10.588h1.919c0.354,0,0.605,0.073,0.754,0.219c0.148,0.146,0.223,0.34,0.223,0.581
			c0,0.229-0.074,0.419-0.223,0.571s-0.399,0.229-0.754,0.229H1788.049z M1788.049,182.562c-0.675-0.216-1.389-0.375-2.143-0.476
			s-1.548-0.152-2.382-0.152c-2.092,0-3.726,0.501-4.902,1.504c-0.891,0.749-1.337,1.644-1.337,2.685
			c0,0.965,0.34,1.777,1.021,2.438c0.68,0.66,1.671,0.99,2.974,0.99c1.245,0,2.401-0.276,3.47-0.829
			c1.068-0.552,2.168-1.431,3.3-2.637V182.562z"/>
		<path fill="#B884C1" d="M1797.336,174.031v2.418c1.005-1.13,1.913-1.911,2.725-2.342s1.726-0.647,2.742-0.647
			c1.097,0,2.097,0.26,2.999,0.781c0.64,0.381,1.22,1.013,1.74,1.895c0.52,0.882,0.779,1.787,0.779,2.713v10.074h1.217
			c0.343,0,0.589,0.073,0.737,0.219c0.148,0.146,0.223,0.34,0.223,0.581c0,0.229-0.074,0.419-0.223,0.571s-0.395,0.229-0.737,0.229
			h-3.856c-0.354,0-0.605-0.076-0.754-0.229s-0.223-0.343-0.223-0.571c0-0.241,0.074-0.435,0.223-0.581
			c0.148-0.146,0.4-0.219,0.754-0.219h1.2v-9.807c0-1.13-0.371-2.085-1.114-2.866c-0.742-0.781-1.736-1.171-2.981-1.171
			c-0.949,0-1.771,0.213-2.469,0.638c-0.696,0.425-1.69,1.482-2.981,3.17v10.036h1.628c0.343,0,0.588,0.073,0.737,0.219
			c0.147,0.146,0.223,0.34,0.223,0.581c0,0.229-0.075,0.419-0.223,0.571c-0.149,0.152-0.395,0.229-0.737,0.229h-4.696
			c-0.343,0-0.589-0.076-0.736-0.229c-0.149-0.152-0.224-0.343-0.224-0.571c0-0.241,0.074-0.435,0.224-0.581
			c0.147-0.146,0.394-0.219,0.736-0.219h1.628V175.65h-1.217c-0.343,0-0.588-0.076-0.736-0.229s-0.223-0.349-0.223-0.59
			c0-0.229,0.074-0.419,0.223-0.571s0.394-0.229,0.736-0.229H1797.336z"/>
	</g>
	<linearGradient id="SVGID_2_" gradientUnits="userSpaceOnUse" x1="1224.8809" y1="622.0312" x2="1649.3018" y2="197.6103">
		<stop  offset="0.209" style="stop-color:#BDBDBD;stop-opacity:0"/>
		<stop  offset="1" style="stop-color:#BDBDBD"/>
	</linearGradient>
	<rect x="1335.168" y="88.322" fill="none" stroke="url(#SVGID_2_)" stroke-miterlimit="10" width="203.846" height="642.996"/>
	<linearGradient id="SVGID_3_" gradientUnits="userSpaceOnUse" x1="1506.584" y1="160.3003" x2="1840.0553" y2="493.7716">
		<stop  offset="0.1305" style="stop-color:#BDBDBD"/>
		<stop  offset="0.6998" style="stop-color:#BDBDBD;stop-opacity:0"/>
	</linearGradient>
	<rect x="1513.812" y="154.07" fill="none" stroke="url(#SVGID_3_)" stroke-miterlimit="10" width="319.014" height="345.93"/>
	<linearGradient id="SVGID_4_" gradientUnits="userSpaceOnUse" x1="1839.9902" y1="380.0449" x2="1187.636" y2="-272.3094">
		<stop  offset="0.1151" style="stop-color:#BDBDBD"/>
		<stop  offset="0.949" style="stop-color:#BDBDBD;stop-opacity:0"/>
	</linearGradient>
	<rect x="1029.792" y="-113.466" fill="none" stroke="url(#SVGID_4_)" stroke-miterlimit="10" width="968.041" height="334.668"/>
	<linearGradient id="SVGID_5_" gradientUnits="userSpaceOnUse" x1="1745.0742" y1="246.543" x2="1950.0171" y2="282.6799">
		<stop  offset="0.302" style="stop-color:#BDBDBD;stop-opacity:0"/>
		<stop  offset="0.7738" style="stop-color:#BDBDBD"/>
	</linearGradient>
	<rect x="1803.119" y="-79.317" fill="none" stroke="url(#SVGID_5_)" stroke-miterlimit="10" width="88.852" height="687.856"/>
	<linearGradient id="SVGID_6_" gradientUnits="userSpaceOnUse" x1="1303.0215" y1="-61.0503" x2="1758.3555" y2="394.2837">
		<stop  offset="0.1695" style="stop-color:#BDBDBD;stop-opacity:0"/>
		<stop  offset="0.8925" style="stop-color:#BDBDBD"/>
	</linearGradient>
	<rect x="1204.026" y="38.944" fill="none" stroke="url(#SVGID_6_)" stroke-miterlimit="10" width="653.323" height="255.345"/>
</svg>
