#define desk_width 10
#define desk_height 10
static unsigned char desk_bits[] = {
   0xfc, 0x00, 0xfe, 0x01, 0x33, 0x03, 0x33, 0x03, 0xff, 0x03, 0xff, 0x03,
   0x33, 0x03, 0x33, 0x03, 0xfe, 0x01, 0xfc, 0x00 };
