#define shade_width 10
#define shade_height 10
static unsigned char shade_bits[] = {
   0xfc, 0x00, 0xfe, 0x01, 0x03, 0x03, 0x03, 0x03, 0x7b, 0x03, 0xb7, 0x03,
   0xcf, 0x03, 0xff, 0x03, 0xfe, 0x01, 0xfc, 0x00 };
